<svg version="1.1" xmlns="http://www.w3.org/2000/svg" xmlns:xlink="http://www.w3.org/1999/xlink">
    <symbol id="logo" viewBox="0 0 154 56">
        <path fill-rule="evenodd" clip-rule="evenodd" d="M4.65974 4.5973C4.25353 6.69678 1.83862 15.214 1.83862 16.0531C2.65223 16.0531 22.1257 20.5602 24.5618 20.5602C28.8712 8.22024 25.0822 8.5734 25.0822 8.5734C24.6772 8.5734 20.7446 10.8202 17.6574 10.0567C12.7581 8.84375 8.60413 3.07506 7.50441 2.91553C7.09584 2.91553 5.47217 2.91553 4.65974 4.5973Z" fill="#FCC90B"/>
        <path fill-rule="evenodd" clip-rule="evenodd" d="M0.829584 26.4452C0.829584 26.4452 -0.892994 28.1136 0.691825 31.4759L6.41413 34.8699C6.41413 34.8699 7.4797 34.5825 8.83845 33.8993C6.45652 25.7608 1.26759 26.3855 0.829584 26.4452Z" fill="#ABC718"/>
        <path fill-rule="evenodd" clip-rule="evenodd" d="M8.08909 6.50983C7.97841 5.92528 8.49883 6.42336 8.76729 6.74121C10.2108 8.51553 11.6543 10.4336 13.5959 11.4589C14.0634 11.6988 14.7003 12.2225 16.211 12.354C18.328 12.5355 20.2849 11.6721 21.2633 11.2446C21.719 11.0437 23.0483 10.4141 24.1622 9.69923C25.223 9.02214 26.0755 8.25858 26.1873 8.14411C26.5465 7.76903 26.7749 6.93118 27.2694 6.78992C27.6756 6.65109 27.9252 6.91413 28.0618 7.14308C28.1996 7.42804 28.1725 7.81774 28.1725 8.14411C28.1725 8.4242 27.9111 12.1044 27.4754 13.9786C26.9903 16.0707 26.4052 18.186 26.0967 19.8605C25.9154 20.6521 25.8706 21.8199 24.9687 21.96C24.0209 22.1463 22.6657 21.4449 21.6743 21.1648C13.0955 19.0616 7.05177 18.879 6.10394 18.7401C5.15611 18.6451 3.71141 18.5526 2.99082 18.32C2.26788 18.1337 1.32005 17.6185 0.869095 16.9646C0.462882 16.4032 0.416963 15.4253 0.462882 14.7251C0.462882 14.3512 1.1399 11.1776 1.23057 10.71C1.45545 9.82588 1.63678 8.88818 1.90641 7.95657C2.26788 6.69615 3.89273 2.6823 4.02931 2.26459C4.16354 1.79696 4.16354 1.00296 4.65924 0.722866C5.42574 0.254015 6.3724 0.630313 7.14008 0.815418C7.63931 0.906753 10.3992 1.34881 11.294 1.48886C12.1253 1.6216 15.5351 2.21588 16.3476 2.4022C18.0619 2.77485 19.8222 3.28754 21.5377 3.71012C22.2147 3.89644 25.4044 4.90234 25.8341 5.05578C25.9872 5.11302 26.2015 5.13006 26.2756 5.29812C26.4158 5.64763 26.0378 5.94599 25.6704 5.89606C25.3349 5.851 21.9875 5.24819 21.5836 5.15442C20.0941 4.80735 18.4917 4.51386 16.8833 4.26421C15.2773 4.01213 11.0633 3.42759 10.5028 3.3119C9.9035 3.19134 7.71349 2.94412 7.23898 3.05373C6.83042 3.14871 6.23935 3.52014 6.12867 3.92079C5.99562 4.40304 5.76131 5.19461 5.65299 5.52828C4.84174 8.23544 3.80207 10.57 3.66784 13.6498C3.62192 13.9298 3.52773 15.6104 4.26362 16.0013C5.00893 16.3971 6.69148 16.4556 6.79392 16.4616C7.24723 16.5006 12.7293 16.9877 13.5559 17.1107C14.6756 17.2837 18.6483 17.8999 19.5054 18.1337C20.2296 18.2725 23.2073 18.9727 23.9738 19.3015C24.6979 16.2668 25.0582 13.0445 26.0072 10.1498C25.3537 10.7453 24.5637 11.1655 23.7701 11.6988C22.8517 12.3126 21.268 13.0445 21.0408 13.1395C20.6734 13.2722 19.6149 13.6912 18.5034 13.9104C17.2848 14.1564 16.0155 14.1892 15.8519 14.1649C14.7686 14.1186 13.8208 13.9773 12.9201 13.4196C11.9263 12.8131 10.889 11.7841 10.1213 10.6649C9.31008 9.49708 8.40582 7.81774 8.08909 6.50983Z" fill="#020203"/>
        <path fill-rule="evenodd" clip-rule="evenodd" d="M10.1952 20.2836C10.3906 20.3202 10.6791 20.6733 10.5602 21.197C10.4059 21.8802 9.4993 22.4964 8.57031 22.7253C7.65427 22.9603 6.96901 22.7631 6.51099 22.3673C6.6252 21.857 6.92897 21.3833 7.6943 20.9498C8.22886 20.6721 9.13548 20.0827 10.1952 20.2836Z" fill="#020203"/>
        <path fill-rule="evenodd" clip-rule="evenodd" d="M10.587 45.2949C10.474 45.5908 10.1125 45.4362 10.0537 45.3728C9.33073 44.6617 9.29069 42.6109 9.21534 41.0753C8.98692 36.5414 9.94299 28.0911 10.8967 24.2612C11.0498 23.7509 11.2287 21.7915 11.2335 21.5516C11.2405 21.2349 11.277 20.8903 11.4289 20.7113C11.8492 20.2388 14.3666 20.475 14.4431 21.1485C14.5585 21.8962 13.9086 23.472 13.7178 24.3817C13.0691 27.4993 10.7013 38.3912 10.587 45.2949Z" fill="#020203"/>
        <path fill-rule="evenodd" clip-rule="evenodd" d="M15.7407 21.0662C18.2557 19.7254 17.4927 24.3019 17.647 24.8547C16.6155 24.6574 16.0056 24.5393 15.4723 23.274C15.0919 22.4082 15.0519 21.423 15.7407 21.0662Z" fill="#020203"/>
        <path fill-rule="evenodd" clip-rule="evenodd" d="M7.6804 34.1181C6.23099 33.4861 2.22773 31.7885 2.75875 29.2238C4.32355 28.8706 5.96371 29.7 7.26006 31.6704C7.83229 29.5392 6.30634 27.8842 4.59083 27.3338C3.75132 27.0525 2.34076 26.6603 1.4259 26.8199C-1.5106 27.4105 0.739462 33.0915 2.37844 34.3142C3.21677 34.945 4.59083 35.5393 5.886 35.303C6.72786 35.1423 8.51873 34.4737 7.6804 34.1181Z" fill="#020203"/>
        <path fill-rule="evenodd" clip-rule="evenodd" d="M95.7278 21.7513C95.7231 21.7671 94.2643 28.3858 94.256 28.4236C93.6732 30.9651 94.0288 31.518 94.601 31.7786C94.9166 31.9296 95.0379 32.1086 95.0226 32.2937C95.0131 32.4289 94.8977 32.6396 94.3879 32.698V32.7078C94.3514 32.7078 94.2513 32.7175 94.1112 32.7138C94.1053 32.7138 94.103 32.7175 94.1006 32.7175L94.0971 32.7138C93.4401 32.7102 91.9 32.5117 91.2289 30.7069C90.1292 32.2072 88.5479 33.0974 86.7134 32.5616C83.8346 31.7201 84.6094 28.3152 84.6306 28.2445C84.6306 28.2445 86.0835 21.7756 86.0894 21.7513C86.4014 20.363 86.7311 20.3618 87.885 20.3618C89.0553 20.3618 89.4203 20.5456 89.1495 21.7513C89.1472 21.7756 87.7225 28.2031 87.7225 28.2031C87.3022 30.1199 87.7873 30.6046 88.2724 30.7276C89.4368 31.0333 90.5283 29.7363 91.1406 28.6488C91.1406 28.6488 92.6524 21.8219 92.6677 21.7513C92.9774 20.363 93.4366 20.3618 94.4821 20.3618C95.616 20.3618 95.9975 20.5456 95.7278 21.7513Z" fill="#020203"/>
        <path fill-rule="evenodd" clip-rule="evenodd" d="M124.563 24.823C124.563 24.823 123.21 30.8572 123.117 31.3066C122.852 32.4817 122.374 32.4817 121.294 32.4817C120.216 32.4817 119.816 32.265 120.034 31.2907L121.472 24.8632C121.896 22.9488 121.333 22.5494 120.725 22.4532C119.617 22.2742 118.82 23.5943 118.34 24.4199C118.34 24.4199 116.813 31.2761 116.807 31.2907C116.54 32.4817 116.138 32.4866 115.002 32.4866C113.864 32.4866 113.509 32.265 113.722 31.3005C113.726 31.2859 115.174 24.8632 115.174 24.8632C115.599 22.9488 115.035 22.5494 114.425 22.4532C113.32 22.2742 112.521 23.5943 112.039 24.4199L110.496 31.2907C110.23 32.4817 109.825 32.4769 108.704 32.4769C107.542 32.4769 107.219 32.265 107.437 31.2907C107.442 31.2615 109.562 21.7968 109.57 21.7518C109.88 20.3635 110.28 20.3622 111.381 20.3622C112.555 20.3622 112.893 20.5498 112.654 21.6324C114.047 20.3635 115.348 20.2636 116.183 20.5059C117.374 20.853 117.937 21.6421 118.19 22.4495C119.283 20.9736 120.674 19.9555 122.481 20.5059C125.519 21.4339 124.566 24.8096 124.563 24.823Z" fill="#020203"/>
        <path fill-rule="evenodd" clip-rule="evenodd" d="M106.868 23.8538C106.503 26.3198 105.693 26.1055 104.646 25.9459C103.599 25.784 103.092 25.5246 103.536 24.554C103.677 24.2447 104.203 23.2424 103.916 22.6567C103.722 22.2597 103.257 21.9041 102.384 21.9881C101.07 22.116 100.219 23.7539 99.6796 25.8254C99.0555 28.2183 99.2427 30.3458 100.699 30.7672C101.679 31.0546 102.996 31.0899 104.647 29.5153C104.649 29.5129 104.653 29.5068 104.657 29.5043C105.002 29.1597 105.216 28.8711 105.687 29.0659C106.126 29.2498 106.206 29.9196 105.701 30.537C104.045 32.4015 102.263 32.8106 100.466 32.6694C98.4421 32.5111 97.4424 31.5015 97.0056 30.8025C96.2756 29.631 96.1484 28.0552 96.4864 26.4501C97.061 23.7429 97.8534 22.0782 99.3252 21.1028C100.407 20.3904 101.611 20.1115 103.007 20.2223C103.735 20.2783 104.832 20.4537 105.741 21.2343C106.79 22.133 106.983 23.0695 106.868 23.8538Z" fill="#020203"/>
        <path fill-rule="evenodd" clip-rule="evenodd" d="M95.7278 21.7513C95.7231 21.7671 94.2643 28.3858 94.256 28.4236C93.6732 30.9651 94.0288 31.518 94.601 31.7786C94.9166 31.9296 95.039 32.1086 95.0226 32.2937C95.0014 32.5166 94.7258 32.7175 94.1006 32.7175C93.4742 32.7163 91.9 32.5117 91.2289 30.7069C90.1292 32.2072 88.5479 33.0974 86.7134 32.5616C83.8346 31.7201 84.6094 28.3152 84.6306 28.2445C84.6306 28.2445 86.0835 21.7756 86.0894 21.7513C86.4014 20.363 86.7311 20.3618 87.885 20.3618C89.0553 20.3618 89.4203 20.5456 89.1495 21.7513C89.1472 21.7756 87.7225 28.2031 87.7225 28.2031C87.3022 30.1199 87.7873 30.6046 88.2724 30.7276C89.4368 31.0333 90.5283 29.7363 91.1406 28.6488C91.1406 28.6488 92.6524 21.8219 92.6677 21.7513C92.9774 20.363 93.4366 20.3618 94.4821 20.3618C95.616 20.3618 95.9975 20.5456 95.7278 21.7513Z" fill="#020203"/>
        <path fill-rule="evenodd" clip-rule="evenodd" d="M126.262 29.5919C125.428 29.5919 124.75 30.2922 124.75 31.1543C124.75 32.0153 125.428 32.718 126.262 32.718C127.096 32.718 127.775 32.0153 127.775 31.1543C127.775 30.2922 127.096 29.5919 126.262 29.5919Z" fill="#020203"/>
        <path fill-rule="evenodd" clip-rule="evenodd" d="M67.2999 27.0647C66.7453 29.152 65.7433 31.2052 64.0949 30.8862C64.089 30.885 64.0855 30.8825 64.0796 30.8801C64.0784 30.8837 64.0784 30.8837 64.0784 30.8862C62.3193 30.5878 62.2781 28.2168 62.9116 25.8275C63.465 23.7414 64.467 21.6882 66.1154 22.0085C66.1212 22.0085 66.1248 22.0109 66.1318 22.0109V22.0085C67.8897 22.3044 67.9333 24.6754 67.2999 27.0647ZM70.0138 22.0693C69.5794 21.3399 68.396 20.4071 66.5051 20.2402C64.8649 20.0941 63.7016 20.3474 62.5572 21.1061C61.083 22.0791 60.2918 23.7414 59.7184 26.4497C59.3793 28.056 59.5076 29.6306 60.2365 30.8021C60.6721 31.5024 61.6741 32.5107 63.6969 32.6678C65.4937 32.8103 66.5086 32.5448 67.6519 31.7861C69.1272 30.8095 69.9185 29.152 70.4919 26.4424C70.8298 24.835 70.7215 23.2543 70.0138 22.0693Z" fill="#020203"/>
        <path fill-rule="evenodd" clip-rule="evenodd" d="M80.1745 26.4404C79.4881 29.3412 78.5485 30.9438 76.7576 30.9584C75.6779 30.973 74.9291 29.961 74.6689 29.4581C74.9008 28.4376 75.134 27.4134 75.353 26.4404C75.6803 25.018 76.5351 21.9662 78.4567 21.9662H78.4661C80.3782 21.9723 80.7903 23.8465 80.1745 26.4404ZM79.3503 20.187C78.0858 20.187 76.7883 21.1795 76.4021 21.8176C76.687 20.545 76.2101 20.3624 75.1493 20.3624C74.1249 20.3624 73.6433 20.3636 73.3419 21.7519C73.3384 21.7567 69.991 36.7003 69.9874 36.7113C69.7661 37.6806 70.1217 37.8974 71.2485 37.8974C72.3906 37.8974 72.7579 37.8913 73.0287 36.7064C73.3231 35.3997 73.7375 33.5706 74.2886 31.135C75.3282 32.589 77.2781 32.7023 77.8162 32.6986C80.8363 32.6913 82.3528 30.4116 83.2535 26.416C84.4604 21.0906 81.1671 20.187 79.3503 20.187Z" fill="#020203"/>
        <path fill-rule="evenodd" clip-rule="evenodd" d="M138.452 26.4404C137.763 29.3412 136.827 30.9438 135.032 30.9584C133.955 30.973 133.207 29.961 132.945 29.4581C133.178 28.4376 133.41 27.4134 133.63 26.4404C133.958 25.018 134.813 21.9662 136.733 21.9662H136.742C138.653 21.9723 139.064 23.8465 138.452 26.4404ZM137.628 20.187C136.274 20.187 135.045 21.1101 134.665 21.7519C134.948 20.5499 134.495 20.3624 133.324 20.3624C132.263 20.3624 131.86 20.3636 131.55 21.7519C131.543 21.7641 128.205 36.7113 128.205 36.7113C127.987 37.6843 128.339 37.8937 129.462 37.8937C130.588 37.8937 131.048 37.8937 131.303 36.6906C131.306 36.6881 132.07 33.3136 132.566 31.135C133.605 32.589 135.558 32.7023 136.09 32.6986C139.111 32.6913 140.63 30.4116 141.531 26.416C142.734 21.0906 139.442 20.187 137.628 20.187Z" fill="#020203"/>
        <path fill-rule="evenodd" clip-rule="evenodd" d="M103.787 22.4493C103.786 22.4493 103.786 22.4505 103.786 22.4505C103.762 22.4249 103.743 22.3994 103.718 22.3738C103.74 22.4018 103.763 22.4237 103.787 22.4493Z" fill="#020203"/>
        <path fill-rule="evenodd" clip-rule="evenodd" d="M43.3419 26.4404C42.6555 29.3412 41.7183 30.9438 39.9251 30.9584C39.2916 30.9657 38.7723 30.6162 38.3968 30.2265C38.9266 27.8956 40.1182 22.72 40.1182 22.72C40.5303 22.2621 41.0283 21.9625 41.6347 21.9662C43.5445 21.9723 43.9554 23.844 43.3419 26.4404ZM35.346 30.1145C34.835 30.632 34.2263 30.9888 33.5387 30.9888C31.9021 30.9888 31.4958 29.0379 32.1093 26.4428C32.7957 23.5469 34.1109 21.9114 35.5285 21.9285C36.3115 21.9382 36.7766 22.2122 37.0133 22.7273L35.346 30.1145ZM42.5201 20.187C41.8113 20.187 41.0966 20.4988 40.5338 20.8836L41.0613 18.5296C41.3333 17.324 40.8458 17.1437 39.7767 17.1437C38.6958 17.1437 38.2661 17.1584 37.9623 18.5223L37.4289 20.8994C36.5812 20.2199 35.2071 20.1736 34.7915 20.1736C31.7714 20.1785 29.9275 22.474 29.0303 26.466C27.9494 31.2714 30.8282 32.6816 32.6321 32.6913C33.5634 32.695 34.3664 32.3089 34.9504 31.851C34.9504 31.851 34.3228 35.0855 33.833 36.0658C33.5234 36.6869 32.9405 36.911 32.5956 37.0681C32.1128 37.2861 32.0587 37.733 32.2765 37.8876C32.5732 38.0971 33.076 38.0837 33.5422 38.0837C35.6321 38.0837 36.7743 36.8878 37.3147 34.775C37.3147 34.775 37.914 32.3649 38.0506 31.7597C39.1162 32.617 40.5397 32.6986 40.9812 32.6986C44.0048 32.6913 45.5214 30.4116 46.4221 26.416C47.6254 21.0906 44.3357 20.187 42.5201 20.187Z" fill="#020203"/>
        <path fill-rule="evenodd" clip-rule="evenodd" d="M57.7004 20.3633L53.7985 20.3621C52.2855 20.3621 50.3121 21.2061 49.5503 23.7586C49.5503 23.761 49.5468 23.7659 49.5468 23.7683C48.9062 25.9603 48.1609 28.7089 47.8819 29.3811C47.5263 30.2372 47.0224 31.2918 46.4643 31.6267L46.4654 31.6316C46.1781 31.7936 45.905 31.8861 45.8343 32.0846C45.7413 32.3404 45.8826 32.6959 46.7916 32.6959C46.8022 32.6959 46.8116 32.6923 46.8234 32.6911C47.6699 32.702 48.8415 32.5169 49.7057 31.6206C50.8219 30.4674 51.871 26.68 52.7352 23.6904C53.092 22.4689 53.8879 22.0074 54.8287 21.9915H55.8825C55.8825 21.9915 53.7702 31.287 53.7702 31.2967C53.5559 32.2648 53.875 32.4816 55.0842 32.4816C56.2946 32.4816 56.5784 32.4767 56.8503 31.3089L59.018 21.7516C59.2888 20.5448 58.7966 20.3633 57.7004 20.3633Z" fill="#020203"/>
        <path fill-rule="evenodd" clip-rule="evenodd" d="M153.91 21.7512C153.91 21.761 152.258 29.2943 151.97 30.4475C151.293 33.1449 151.05 35.2761 148.594 37.0285C147.181 38.0356 144.63 38.4679 142.269 37.5132C141.706 37.3001 141.665 36.8068 141.679 36.6668C141.718 36.327 141.991 36.025 142.493 36.0725C145.924 36.2515 147.785 35.6231 148.699 31.5703C148.004 32.2657 146.103 32.8222 144.921 32.4776C142.061 31.6397 142.832 28.2567 142.849 28.1885C142.849 28.1885 144.168 22.3212 144.295 21.7512C144.606 20.363 145.083 20.3617 146.167 20.3617C147.241 20.3617 147.625 20.5456 147.354 21.7512C147.354 21.7573 145.923 28.1459 145.923 28.1459C145.502 30.053 145.986 30.5413 146.468 30.657C147.721 30.959 148.914 30.5656 149.224 29.1883C149.332 28.7292 150.851 21.7512 150.851 21.7512C151.161 20.363 151.653 20.3569 152.666 20.3569C153.762 20.3569 154.181 20.5456 153.91 21.7512Z" fill="#020203"/>
        <path d="M91.4153 51.8321L90.3233 51.9721C90.3233 51.9721 90.2533 52.0701 90.2253 52.2381C90.1973 52.3921 90.2393 52.4901 90.2393 52.4901C90.2393 52.4901 90.7853 52.5881 91.9193 52.5881C93.0533 52.5881 93.6413 52.4901 93.6413 52.4901C93.6413 52.4901 93.6973 52.3921 93.7393 52.2381C93.7673 52.0701 93.7253 51.9721 93.7253 51.9721L92.6753 51.8321L93.9633 43.5581H98.0093L96.7073 51.8321L95.6153 51.9721C95.6153 51.9721 95.5453 52.0701 95.5173 52.2381C95.4893 52.3921 95.5173 52.4901 95.5173 52.4901C95.5173 52.4901 96.0773 52.5881 97.2113 52.5881C98.3453 52.5881 98.9333 52.4901 98.9333 52.4901C98.9333 52.4901 98.9893 52.3921 99.0173 52.2381C99.0593 52.0701 99.0173 51.9721 99.0173 51.9721L97.9673 51.8321L99.2693 43.4881L100.361 43.3481C100.361 43.3481 100.431 43.2501 100.459 43.0821C100.487 42.9281 100.459 42.8301 100.459 42.8301C100.459 42.8301 98.9753 42.7321 96.1193 42.7321C93.2493 42.7321 91.7653 42.8301 91.7653 42.8301C91.7653 42.8301 91.6953 42.9281 91.6673 43.0821C91.6393 43.2501 91.6673 43.3481 91.6673 43.3481L92.7173 43.4881L91.4153 51.8321ZM106.436 51.8741C105.988 51.8741 105.876 51.7061 105.974 51.0761L106.842 45.6021C106.842 45.6021 106.562 45.5321 106.254 45.5321C105.946 45.5321 105.638 45.6021 105.638 45.6021L105.554 46.1901C105.554 46.1901 105.358 45.4901 103.762 45.4901C102.068 45.4901 101.326 46.3021 101.102 47.7021L100.668 50.4181C100.444 51.8181 100.864 52.6301 102.32 52.6301C103.846 52.6301 104.826 51.7901 104.826 51.7901C104.812 52.3221 105.022 52.6301 105.834 52.6301C106.254 52.6301 106.548 52.5181 106.674 52.4761C106.674 52.4761 106.772 52.3221 106.8 52.1401C106.828 51.9721 106.786 51.8181 106.786 51.8181C106.758 51.8321 106.618 51.8741 106.436 51.8741ZM102.292 47.7021C102.446 46.7081 102.852 46.2321 103.888 46.2321C105.12 46.2321 105.456 46.7081 105.316 47.7021L104.77 51.1041C104.77 51.1041 104.154 51.8881 102.838 51.8881C101.928 51.8881 101.718 51.4121 101.872 50.4181L102.292 47.7021ZM109.301 46.2601L107.859 55.3181C107.859 55.3181 108.153 55.3881 108.461 55.3881C108.755 55.3881 109.063 55.3181 109.063 55.3181L109.595 51.9721C109.609 52.0421 109.973 52.6301 111.373 52.6301C113.095 52.6301 113.865 51.8181 114.089 50.4181L114.509 47.7021C114.747 46.3021 114.313 45.4901 112.857 45.4901C111.401 45.4901 110.505 46.2741 110.505 46.2741L110.603 45.6021C110.603 45.6021 110.267 45.5321 109.875 45.5321C108.937 45.5321 108.433 45.6301 108.433 45.6301C108.433 45.6301 108.363 45.7281 108.335 45.8681C108.321 46.0081 108.349 46.1061 108.349 46.1061L109.301 46.2601ZM112.885 50.4181C112.731 51.4121 112.325 51.8881 111.289 51.8881C110.043 51.8881 109.693 51.4121 109.847 50.4181L110.365 47.0441C110.365 47.0441 111.009 46.2321 112.325 46.2321C113.249 46.2321 113.473 46.7081 113.319 47.7021L112.885 50.4181ZM125.908 51.8881C125.46 51.8881 125.348 51.6501 125.418 51.1741L125.978 47.5621C126.202 46.2461 125.796 45.4901 124.41 45.4901C122.912 45.4901 121.946 46.2741 121.946 46.2741C121.778 45.7561 121.288 45.4901 120.434 45.4901C119.118 45.4901 118.264 46.2741 118.264 46.2741L118.362 45.6021C118.362 45.6021 118.026 45.5321 117.634 45.5321C116.696 45.5321 116.192 45.6301 116.192 45.6301C116.192 45.6301 116.122 45.7281 116.094 45.8681C116.08 46.0081 116.108 46.1061 116.108 46.1061L117.06 46.2601L116.066 52.5181C116.066 52.5181 116.346 52.5881 116.654 52.5881C116.948 52.5881 117.27 52.5181 117.27 52.5181L118.124 47.0441C118.124 47.0441 118.712 46.2321 119.916 46.2321C120.77 46.2321 120.966 46.6661 120.826 47.5621L120.042 52.5181C120.042 52.5181 120.322 52.5881 120.63 52.5881C120.924 52.5881 121.232 52.5181 121.232 52.5181L122.128 46.9321C122.226 46.8061 122.8 46.2321 123.878 46.2321C124.732 46.2321 124.928 46.6661 124.788 47.5621L124.228 51.1741C124.06 52.0981 124.354 52.6301 125.334 52.6301C125.74 52.6301 126.006 52.5321 126.146 52.4901C126.146 52.4901 126.23 52.3361 126.258 52.1681C126.286 51.9861 126.258 51.8321 126.258 51.8321C126.216 51.8461 126.076 51.8881 125.908 51.8881ZM127.693 52.5181C127.693 52.5181 127.973 52.5881 128.281 52.5881C128.575 52.5881 128.897 52.5181 128.897 52.5181L129.401 49.3121H132.425L132.145 51.1741C131.991 52.0981 132.285 52.6301 133.265 52.6301C133.657 52.6301 133.937 52.5321 134.063 52.4901C134.063 52.4901 134.147 52.3361 134.175 52.1681C134.203 51.9861 134.175 51.8321 134.175 51.8321C134.133 51.8461 134.007 51.8881 133.825 51.8881C133.377 51.8881 133.265 51.6501 133.349 51.1741L134.217 45.6021C134.217 45.6021 133.937 45.5321 133.629 45.5321C133.321 45.5321 133.013 45.6021 133.013 45.6021L132.551 48.5701H129.527L129.989 45.6021C129.989 45.6021 129.653 45.5321 129.261 45.5321C128.323 45.5321 127.819 45.6301 127.819 45.6301C127.819 45.6301 127.749 45.7281 127.721 45.8681C127.707 46.0081 127.735 46.1061 127.735 46.1061L128.687 46.2601L127.693 52.5181ZM135.805 50.4181C135.581 51.8181 136.211 52.6301 138.297 52.6301C139.865 52.6301 140.901 52.1121 140.901 52.1121C140.901 52.1121 141.013 51.9721 141.055 51.7481C141.097 51.5101 141.027 51.3701 141.041 51.3561C141.027 51.3701 139.963 51.8881 138.549 51.8881C137.191 51.8881 136.855 51.4121 137.009 50.4181L137.163 49.4101H139.291C140.635 49.4101 141.447 49.2981 141.447 49.2981L141.699 47.7021C141.923 46.3021 141.419 45.4901 139.347 45.4901C137.331 45.4901 136.463 46.3021 136.239 47.7021L135.805 50.4181ZM137.275 48.6681L137.429 47.7021C137.583 46.7081 138.031 46.2321 139.221 46.2321C140.411 46.2321 140.705 46.7081 140.565 47.7021L140.411 48.6681H137.275ZM144.205 46.2601L142.763 55.3181C142.763 55.3181 143.057 55.3881 143.365 55.3881C143.659 55.3881 143.967 55.3181 143.967 55.3181L144.499 51.9721C144.513 52.0421 144.877 52.6301 146.277 52.6301C147.999 52.6301 148.769 51.8181 148.993 50.4181L149.413 47.7021C149.651 46.3021 149.217 45.4901 147.761 45.4901C146.305 45.4901 145.409 46.2741 145.409 46.2741L145.507 45.6021C145.507 45.6021 145.171 45.5321 144.779 45.5321C143.841 45.5321 143.337 45.6301 143.337 45.6301C143.337 45.6301 143.267 45.7281 143.239 45.8681C143.225 46.0081 143.253 46.1061 143.253 46.1061L144.205 46.2601ZM147.789 50.4181C147.635 51.4121 147.229 51.8881 146.193 51.8881C144.947 51.8881 144.597 51.4121 144.751 50.4181L145.269 47.0441C145.269 47.0441 145.913 46.2321 147.229 46.2321C148.153 46.2321 148.377 46.7081 148.223 47.7021L147.789 50.4181Z" fill="black"/>
    </symbol>
    <symbol id="tick" viewBox="0 0 14 15">
        <path fill-rule="evenodd" clip-rule="evenodd" d="M1.29686 8.99372L2.17161 7.98744L5.34139 10.7429L12.5212 4.61742L13.5778 5.5359L5.70509 14.5924L1.29686 8.99372Z" fill="white"/>
    </symbol>
    <symbol id="info" viewBox="0 0 24 24">
        <path d="M12 22C17.5228 22 22 17.5228 22 12C22 6.47715 17.5228 2 12 2C6.47715 2 2 6.47715 2 12C2 17.5228 6.47715 22 12 22Z" stroke-width="2" stroke-linecap="round" stroke-linejoin="round"/>
        <path d="M12 16V12" stroke-width="2" stroke-linecap="round" stroke-linejoin="round"/>
        <path d="M12 8H12.01" stroke-width="2" stroke-linecap="round" stroke-linejoin="round"/>
    </symbol>
    <symbol id="arrow-drop" viewBox="0 0 20 20">
        <path fill-rule="evenodd" clip-rule="evenodd" d="M10 -4.37114e-07C15.514 -1.96089e-07 20 4.486 20 10C20 15.514 15.514 20 10 20C4.486 20 -6.78138e-07 15.514 -4.37114e-07 10C-1.96089e-07 4.486 4.486 -6.78138e-07 10 -4.37114e-07ZM14 7.99997C13.6096 7.6095 12.9765 7.6095 12.586 7.99997L10 10.586L7.41403 7.99997C7.02357 7.6095 6.3905 7.6095 6.00003 7.99997C5.60957 8.39043 5.60957 9.0235 6.00003 9.41397L10 13.414L14 9.41397C14.3905 9.0235 14.3905 8.39043 14 7.99997Z"/>
    </symbol>
    <symbol id="left" viewBox="0 0 24 24">
        <path d="M19 12H5" stroke-width="2" stroke-linecap="round" stroke-linejoin="round"/>
        <path d="M12 19L5 12L12 5" stroke-width="2" stroke-linecap="round" stroke-linejoin="round"/>
    </symbol>
    <symbol id="right" viewBox="0 0 24 24">
        <path d="M5 12H19" stroke-width="2" stroke-linecap="round" stroke-linejoin="round"/>
        <path d="M12 5L19 12L12 19" stroke-width="2" stroke-linecap="round" stroke-linejoin="round"/>
    </symbol>
    <symbol id="camera" viewBox="0 0 24 24" fill="none">
        <path d="M23 19C23 19.5304 22.7893 20.0391 22.4142 20.4142C22.0391 20.7893 21.5304 21 21 21H3C2.46957 21 1.96086 20.7893 1.58579 20.4142C1.21071 20.0391 1 19.5304 1 19V8C1 7.46957 1.21071 6.96086 1.58579 6.58579C1.96086 6.21071 2.46957 6 3 6H7L9 3H15L17 6H21C21.5304 6 22.0391 6.21071 22.4142 6.58579C22.7893 6.96086 23 7.46957 23 8V19Z" stroke-width="2" stroke-linecap="round" stroke-linejoin="round"/>
        <path d="M12 17C14.2091 17 16 15.2091 16 13C16 10.7909 14.2091 9 12 9C9.79086 9 8 10.7909 8 13C8 15.2091 9.79086 17 12 17Z" stroke-width="2" stroke-linecap="round" stroke-linejoin="round"/>
    </symbol>
    <symbol id="photo" viewBox="0 0 24 24">
        <path d="M19 3H5C3.89543 3 3 3.89543 3 5V19C3 20.1046 3.89543 21 5 21H19C20.1046 21 21 20.1046 21 19V5C21 3.89543 20.1046 3 19 3Z" stroke-width="2" stroke-linecap="round" stroke-linejoin="round"/>
        <path d="M8.5 10C9.32843 10 10 9.32843 10 8.5C10 7.67157 9.32843 7 8.5 7C7.67157 7 7 7.67157 7 8.5C7 9.32843 7.67157 10 8.5 10Z" stroke-width="2" stroke-linecap="round" stroke-linejoin="round"/>
        <path d="M21 15L16 10L5 21" stroke-width="2" stroke-linecap="round" stroke-linejoin="round"/>
    </symbol>
    <symbol id="doc" viewBox="0 0 24 24">
        <path d="M4 12V20C4 20.5304 4.21071 21.0391 4.58579 21.4142C4.96086 21.7893 5.46957 22 6 22H18C18.5304 22 19.0391 21.7893 19.4142 21.4142C19.7893 21.0391 20 20.5304 20 20V12" stroke-width="2" stroke-linecap="round" stroke-linejoin="round"/>
        <path d="M16 6L12 2L8 6" stroke-width="2" stroke-linecap="round" stroke-linejoin="round"/>
        <path d="M12 2V15" stroke-width="2" stroke-linecap="round" stroke-linejoin="round"/>
    </symbol>
    <symbol id="cross" viewBox="0 0 16 16">
        <path d="M12 4L4 12" stroke-width="2" stroke-linecap="round" stroke-linejoin="round"/>
        <path d="M4 4L12 12" stroke-width="2" stroke-linecap="round" stroke-linejoin="round"/>
    </symbol>
    <symbol id="calendar" viewBox="0 0 24 24" fill="none">
        <path d="M19 4H5C3.89543 4 3 4.89543 3 6V20C3 21.1046 3.89543 22 5 22H19C20.1046 22 21 21.1046 21 20V6C21 4.89543 20.1046 4 19 4Z" stroke-width="2" stroke-linecap="round" stroke-linejoin="round"/>
        <path d="M16 2V6" stroke-width="2" stroke-linecap="round" stroke-linejoin="round"/>
        <path d="M8 2V6" stroke-width="2" stroke-linecap="round" stroke-linejoin="round"/>
        <path d="M3 10H21" stroke-width="2" stroke-linecap="round" stroke-linejoin="round"/>
    </symbol>
    <symbol id="lens" viewBox="0 0 16 16" fill="none">
        <path d="M7.33333 12.6667C10.2789 12.6667 12.6667 10.2789 12.6667 7.33333C12.6667 4.38781 10.2789 2 7.33333 2C4.38781 2 2 4.38781 2 7.33333C2 10.2789 4.38781 12.6667 7.33333 12.6667Z" stroke-width="2" stroke-linecap="round" stroke-linejoin="round"/>
        <path d="M14.0001 14.0006L11.1001 11.1006" stroke-width="2" stroke-linecap="round" stroke-linejoin="round"/>
    </symbol>
    <symbol id="expand" viewBox="0 0 24 24" fill="none">
        <path d="M19 3H5C3.89543 3 3 3.89543 3 5V19C3 20.1046 3.89543 21 5 21H19C20.1046 21 21 20.1046 21 19V5C21 3.89543 20.1046 3 19 3Z" stroke-width="2" stroke-linecap="round" stroke-linejoin="round"/>
        <path d="M8 12H16" stroke-width="2" stroke-linecap="round" stroke-linejoin="round"/>
    </symbol>
    <symbol id="close" viewBox="0 0 22 22" fill="none">
        <path d="M11 21C16.5228 21 21 16.5228 21 11C21 5.47715 16.5228 1 11 1C5.47715 1 1 5.47715 1 11C1 16.5228 5.47715 21 11 21Z" stroke-width="2" stroke-linecap="round" stroke-linejoin="round"/>
        <path d="M14 8L8 14" stroke-width="2" stroke-linecap="round" stroke-linejoin="round"/>
        <path d="M8 8L14 14" stroke-width="2" stroke-linecap="round" stroke-linejoin="round"/>
    </symbol>
    <symbol id="letter" viewBox="0 0 24 24" fill="none">
        <path d="M4 4H20C21.1 4 22 4.9 22 6V18C22 19.1 21.1 20 20 20H4C2.9 20 2 19.1 2 18V6C2 4.9 2.9 4 4 4Z" stroke-width="2" stroke-linecap="round" stroke-linejoin="round"/>
        <path d="M22 6L12 13L2 6" stroke-width="2" stroke-linecap="round" stroke-linejoin="round"/>
    </symbol>
    <symbol id="share" viewBox="0 0 24 24" fill="none">
        <path d="M4 12V20C4 20.5304 4.21071 21.0391 4.58579 21.4142C4.96086 21.7893 5.46957 22 6 22H18C18.5304 22 19.0391 21.7893 19.4142 21.4142C19.7893 21.0391 20 20.5304 20 20V12" stroke-width="2" stroke-linecap="round" stroke-linejoin="round"/>
        <path d="M16 6L12 2L8 6" stroke-width="2" stroke-linecap="round" stroke-linejoin="round"/>
        <path d="M12 2V15" stroke-width="2" stroke-linecap="round" stroke-linejoin="round"/>
    </symbol>
    <symbol id="arrow-left" viewBox="0 0 24 24" fill="none">
        <path d="M19 12H5" stroke-width="2" stroke-linecap="round" stroke-linejoin="round"/>
        <path d="M12 19L5 12L12 5" stroke-width="2" stroke-linecap="round" stroke-linejoin="round"/>
    </symbol>
    <symbol id="arrow-right" viewBox="0 0 24 24" fill="none">
        <path d="M5 12H19" stroke-width="2" stroke-linecap="round" stroke-linejoin="round"/>
        <path d="M12 5L19 12L12 19" stroke-width="2" stroke-linecap="round" stroke-linejoin="round"/>
    </symbol>
    <symbol id="image" viewBox="0 0 24 24" fill="none">
        <path d="M19 3H5C3.89543 3 3 3.89543 3 5V19C3 20.1046 3.89543 21 5 21H19C20.1046 21 21 20.1046 21 19V5C21 3.89543 20.1046 3 19 3Z" stroke-width="2" stroke-linecap="round" stroke-linejoin="round"/>
        <path d="M8.5 10C9.32843 10 10 9.32843 10 8.5C10 7.67157 9.32843 7 8.5 7C7.67157 7 7 7.67157 7 8.5C7 9.32843 7.67157 10 8.5 10Z" stroke-width="2" stroke-linecap="round" stroke-linejoin="round"/>
        <path d="M21 15L16 10L5 21" stroke-width="2" stroke-linecap="round" stroke-linejoin="round"/>
    </symbol>
    <symbol id="external" viewBox="0 0 24 24" fill="none">
        <path d="M18 8C19.6569 8 21 6.65685 21 5C21 3.34315 19.6569 2 18 2C16.3431 2 15 3.34315 15 5C15 6.65685 16.3431 8 18 8Z" stroke-width="2" stroke-linecap="round" stroke-linejoin="round"/>
        <path d="M6 15C7.65685 15 9 13.6569 9 12C9 10.3431 7.65685 9 6 9C4.34315 9 3 10.3431 3 12C3 13.6569 4.34315 15 6 15Z" stroke-width="2" stroke-linecap="round" stroke-linejoin="round"/>
        <path d="M18 22C19.6569 22 21 20.6569 21 19C21 17.3431 19.6569 16 18 16C16.3431 16 15 17.3431 15 19C15 20.6569 16.3431 22 18 22Z" stroke-width="2" stroke-linecap="round" stroke-linejoin="round"/>
        <path d="M8.59 13.5098L15.42 17.4898" stroke-width="2" stroke-linecap="round" stroke-linejoin="round"/>
        <path d="M15.41 6.50977L8.59 10.4898" stroke-width="2" stroke-linecap="round" stroke-linejoin="round"/>
    </symbol>
    <symbol id="drop" viewBox="0 0 24 24">
        <path fill-rule="evenodd" clip-rule="evenodd" d="M12 2C17.514 2 22 6.486 22 12C22 17.514 17.514 22 12 22C6.486 22 2 17.514 2 12C2 6.486 6.486 2 12 2ZM16 9.99997C15.6096 9.6095 14.9765 9.6095 14.586 9.99997L12 12.586L9.41403 9.99997C9.02357 9.6095 8.3905 9.6095 8.00003 9.99997C7.60957 10.3904 7.60957 11.0235 8.00003 11.414L12 15.414L16 11.414C16.3905 11.0235 16.3905 10.3904 16 9.99997Z"/>
    </symbol>
    <symbol id="tip" viewBox="0 0 24 24" fill="none">
        <rect width="24" height="24" rx="12" fill="#FFD96F"/>
        <path d="M12 21C16.9706 21 21 16.9706 21 12C21 7.02944 16.9706 3 12 3C7.02944 3 3 7.02944 3 12C3 16.9706 7.02944 21 12 21Z" stroke="black" stroke-width="2" stroke-linecap="round" stroke-linejoin="round"/>
        <path d="M12 8V12" stroke="black" stroke-width="2" stroke-linecap="round" stroke-linejoin="round"/>
        <path d="M12 16H12.01" stroke="black" stroke-width="2" stroke-linecap="round" stroke-linejoin="round"/>
    </symbol>
    <symbol id="close-sm" viewBox="0 0 10 10" fill="none">
        <path d="M9 1L1 9" stroke-width="2" stroke-linecap="round" stroke-linejoin="round"/>
        <path d="M1 1L9 9" stroke-width="2" stroke-linecap="round" stroke-linejoin="round"/>
    </symbol>
    <symbol id="plus" viewBox="0 0 16 16" fill="none">
        <path d="M8.00004 14.6663C11.6819 14.6663 14.6667 11.6816 14.6667 7.99967C14.6667 4.31778 11.6819 1.33301 8.00004 1.33301C4.31814 1.33301 1.33337 4.31778 1.33337 7.99967C1.33337 11.6816 4.31814 14.6663 8.00004 14.6663Z" stroke-width="2" stroke-linecap="round" stroke-linejoin="round"/>
        <path d="M8 5.33301V10.6663" stroke-width="2" stroke-linecap="round" stroke-linejoin="round"/>
        <path d="M5.33337 8H10.6667" stroke-width="2" stroke-linecap="round" stroke-linejoin="round"/>
    </symbol>
    <symbol id="chat-single" viewBox="0 0 24 24" fill="none">
        <rect width="24" height="24" rx="12" fill="#F4CA47"/>
        <path d="M20 21V19C20 17.9391 19.5786 16.9217 18.8284 16.1716C18.0783 15.4214 17.0609 15 16 15H8C6.93913 15 5.92172 15.4214 5.17157 16.1716C4.42143 16.9217 4 17.9391 4 19V21" stroke="black" stroke-width="2" stroke-linecap="round" stroke-linejoin="round"/>
        <path d="M12 11C14.2091 11 16 9.20914 16 7C16 4.79086 14.2091 3 12 3C9.79086 3 8 4.79086 8 7C8 9.20914 9.79086 11 12 11Z" stroke="black" stroke-width="2" stroke-linecap="round" stroke-linejoin="round"/>
    </symbol>
    <symbol id="chat-group" viewBox="0 0 24 24" fill="none">
        <rect width="24" height="24" rx="12" fill="#F4CA47"/>
        <path d="M17 21V19C17 17.9391 16.5786 16.9217 15.8284 16.1716C15.0783 15.4214 14.0609 15 13 15H5C3.93913 15 2.92172 15.4214 2.17157 16.1716C1.42143 16.9217 1 17.9391 1 19V21" stroke="black" stroke-width="2" stroke-linecap="round" stroke-linejoin="round"/>
        <path d="M9 11C11.2091 11 13 9.20914 13 7C13 4.79086 11.2091 3 9 3C6.79086 3 5 4.79086 5 7C5 9.20914 6.79086 11 9 11Z" stroke="black" stroke-width="2" stroke-linecap="round" stroke-linejoin="round"/>
        <path d="M23 20.9999V18.9999C22.9993 18.1136 22.7044 17.2527 22.1614 16.5522C21.6184 15.8517 20.8581 15.3515 20 15.1299" stroke="black" stroke-width="2" stroke-linecap="round" stroke-linejoin="round"/>
        <path d="M16 3.12988C16.8604 3.35018 17.623 3.85058 18.1676 4.55219C18.7122 5.2538 19.0078 6.11671 19.0078 7.00488C19.0078 7.89305 18.7122 8.75596 18.1676 9.45757C17.623 10.1592 16.8604 10.6596 16 10.8799" stroke="black" stroke-width="2" stroke-linecap="round" stroke-linejoin="round"/>
    </symbol>
    <symbol id="back" viewBox="0 0 24 24">
        <path fill-rule="evenodd" clip-rule="evenodd" d="M22 12C22 17.514 17.514 22 12 22C6.486 22 2 17.514 2 12C2 6.486 6.486 2 12 2C17.514 2 22 6.486 22 12ZM14 16C14.3905 15.6096 14.3905 14.9765 14 14.586L11.414 12L14 9.41403C14.3905 9.02357 14.3905 8.3905 14 8.00003C13.6096 7.60957 12.9765 7.60957 12.586 8.00003L8.58603 12L12.586 16C12.9765 16.3905 13.6096 16.3905 14 16Z"/>
    </symbol>
    <symbol id="send" viewBox="0 0 32 32">
        <path fill-rule="evenodd" clip-rule="evenodd" d="M2.66663 16.0003C2.66663 8.64833 8.64796 2.66699 16 2.66699C23.352 2.66699 29.3333 8.64833 29.3333 16.0003C29.3333 23.3523 23.352 29.3337 16 29.3337C8.64796 29.3337 2.66663 23.3523 2.66663 16.0003ZM13.3333 10.6669C12.8126 11.1876 12.8126 12.0317 13.3333 12.5523L16.7812 16.0003L13.3333 19.4483C12.8126 19.9689 12.8126 20.813 13.3332 21.3336C13.8539 21.8542 14.698 21.8542 15.2186 21.3336L20.5519 16.0003L15.2186 10.6669C14.698 10.1463 13.8539 10.1463 13.3333 10.6669Z"/>
    </symbol>
    <symbol id="file" viewBox="0 0 12 21" fill="none">
        <path d="M11 4.30587L11 15.0412C11 16.3564 10.4732 17.6176 9.53553 18.5476C8.59785 19.4776 7.32608 20 6 20C4.67392 20 3.40215 19.4776 2.46447 18.5476C1.52678 17.6176 1 16.3564 1 15.0412L1 4.30587C1 3.4291 1.35119 2.58824 1.97631 1.96827C2.60143 1.3483 3.44928 1 4.33333 1C5.21739 1 6.06523 1.3483 6.69036 1.96827C7.31548 2.58824 7.66667 3.4291 7.66667 4.30587L7.66078 15.047C7.66078 15.4854 7.48518 15.9059 7.17262 16.2158C6.86006 16.5258 6.43614 16.7 5.99411 16.7C5.55208 16.7 5.12816 16.5258 4.8156 16.2158C4.50304 15.9058 4.32744 15.4854 4.32744 15.047L4.33333 5.13526" stroke="black" stroke-width="2" stroke-linecap="round" stroke-linejoin="round"/>
    </symbol>
    <symbol id="check" viewBox="0 0 24 24" fill="none">
        <rect width="24" height="24" rx="12" fill="#5B8D31"/>
        <path d="M16.407 10.5214C16.7974 10.1309 16.7974 9.49786 16.407 9.10739C16.0165 8.71693 15.3834 8.71693 14.993 9.10739L10.907 13.1934L9.32095 11.6074C8.93049 11.2169 8.29742 11.2169 7.90695 11.6074C7.51649 11.9979 7.51649 12.6309 7.90695 13.0214L10.907 16.0214L16.407 10.5214Z" fill="white"/>
    </symbol>
    <symbol id="edit" viewBox="0 0 22 22" fill="none">
        <rect width="22" height="22" rx="11" fill="#E9E9E9"/>
        <path d="M12.3335 6.99955C12.5086 6.82445 12.7165 6.68556 12.9452 6.5908C13.174 6.49604 13.4192 6.44727 13.6668 6.44727C13.9145 6.44727 14.1597 6.49604 14.3884 6.5908C14.6172 6.68556 14.8251 6.82445 15.0002 6.99955C15.1753 7.17465 15.3142 7.38252 15.4089 7.61129C15.5037 7.84006 15.5524 8.08526 15.5524 8.33288C15.5524 8.58051 15.5037 8.8257 15.4089 9.05448C15.3142 9.28325 15.1753 9.49112 15.0002 9.66622L10.0002 14.6662L6.3335 15.6662L7.3335 11.9995L12.3335 6.99955Z" stroke="black" stroke-width="2" stroke-linecap="round" stroke-linejoin="round"/>
    </symbol>
    <symbol id="drop" viewBox="0 0 24 24" fill="none">
        <path fill-rule="evenodd" clip-rule="evenodd" d="M12 2C17.514 2 22 6.486 22 12C22 17.514 17.514 22 12 22C6.486 22 2 17.514 2 12C2 6.486 6.486 2 12 2ZM16 9.99997C15.6096 9.6095 14.9765 9.6095 14.586 9.99997L12 12.586L9.41403 9.99997C9.02357 9.6095 8.3905 9.6095 8.00003 9.99997C7.60957 10.3904 7.60957 11.0235 8.00003 11.414L12 15.414L16 11.414C16.3905 11.0235 16.3905 10.3904 16 9.99997Z" fill="#678B3F"/>
    </symbol>

</svg>